<svg id="Layer_1" data-name="Layer 1" xmlns="http://www.w3.org/2000/svg" viewBox="0 0 48 48"><defs><style>.cls-1{fill:none;stroke:#000;stroke-linecap:round;stroke-linejoin:round;stroke-width:2px;}</style></defs><title>health_1</title><path class="cls-1" d="M24,42,7.66,25.66a11.32,11.32,0,0,1,0-16L8,9.32a11.32,11.32,0,0,1,16,0h0a11.32,11.32,0,0,1,16,0l.33.33a11.32,11.32,0,0,1,0,16Z"/><polyline class="cls-1" points="4 24 15 24 17 20 19 28 23 17 26 29 28 20 30 25 31 24 44 24"/><rect class="cls-1" x="-632" y="-88" width="700" height="700"/></svg>