<?xml version="1.0" ?><svg style="enable-background:new 0 0 48 48;" version="1.1" viewBox="0 0 48 48" xml:space="preserve" xmlns="http://www.w3.org/2000/svg" xmlns:xlink="http://www.w3.org/1999/xlink"><style type="text/css">
	.st0{display:none;}
	.st1{fill:none;stroke:#303030;stroke-width:0.7;stroke-linecap:round;stroke-linejoin:round;stroke-miterlimit:10;}
	.st2{fill:#303030;}
</style><g class="st0" id="Padding__x26__Artboard"/><g id="Icons"><g><g><polyline class="st1" points="9.1236,17.26491 9.1236,31.33844 9.1236,33.13679    "/><path class="st1" d="M34.52,25.16875v7.97c0,0.23-0.14,0.39-0.26,0.39l-21.88-0.07"/><line class="st1" x1="25.41" x2="10.87" y1="16.34875" y2="16.34875"/></g><g><path class="st1" d="M9.12,17.26875l12.2,8.4c0.15,0.1,0.32,0.15,0.5,0.15c0.17,0,0.34-0.05,0.49-0.15l3.17-2.19"/><polyline class="st1" points="10.87,16.34875 21.82,23.88874 25.41,21.41875    "/></g><g><path class="st1" d="M9.1236,33.13679v3.21446l2.54136-2.5064c0,0,0.36364-0.38722,0.71505-0.3861"/></g><line class="st1" x1="11.66496" x2="11.66496" y1="22.37345" y2="27.20828"/><line class="st1" x1="11.66496" x2="11.66496" y1="28.87467" y2="29.94592"/><path class="st1" d="M38.88,13.84871v7.85004c0,1.20001-0.98999,2.19-2.20001,2.19h-7.84997    c-0.91998,0-1.71002-0.57001-2.02997-1.37c-0.10004-0.25-0.16003-0.53003-0.16003-0.82001v-7.85004    c0-1.20996,0.97998-2.19995,2.19-2.19995h7.84997C37.89001,11.64875,38.88,12.63874,38.88,13.84871z"/><line class="st1" x1="26.64" x2="26.64" y1="20.56874" y2="16.34875"/><path class="st2" d="M33.03002,15.16874l-1.14001,0.61005l0.14001,0.53998l0.89996-0.48999H32.95v4.53998H33.63v-5.20001H33.03002    z"/></g></g></svg>